<svg xmlns="http://www.w3.org/2000/svg" width="37.118" height="37.118" viewBox="0 0 37.118 37.118">
  <g id="custom-2" transform="translate(-6.943 -1.567)">
    <g id="Group_4136" data-name="Group 4136" transform="translate(-4.281 -85.082)">
      <rect id="Rectangle_1491" data-name="Rectangle 1491" width="37.118" height="37.118" rx="18.559" transform="translate(11.224 86.649)" fill="#007bff"/>
    </g>
    <g id="Group_40" data-name="Group 40" transform="translate(13.152 7.35)">
      <path id="Path_3" data-name="Path 3" d="M0,0H25.125V25.125H0Z" fill="none"/>
      <path id="Path_4" data-name="Path 4" d="M19.2,9.375a5.863,5.863,0,0,1,1.57,4.187c0,3.628-3.873,4.476-5.758,9.422a3.266,3.266,0,0,1-1.047-2.617C13.969,16.722,19.2,14.829,19.2,9.375ZM15.016,5.188A5.942,5.942,0,0,1,16.9,9.375c0,5.183-6.328,5.959-5.025,13.609A5.989,5.989,0,0,1,9.258,17.75C9.258,14.269,15.016,11.469,15.016,5.188ZM10.3,1A7.907,7.907,0,0,1,12.4,5.711c0,6.543-8.9,8.607-4.188,17.273A6.227,6.227,0,0,1,3.5,16.7C3.5,9.9,10.3,8.852,10.3,1Z" transform="translate(0.164 0.047)" fill="#fff"/>
    </g>
  </g>
</svg>
