<svg xmlns="http://www.w3.org/2000/svg" width="253.644" height="48" viewBox="0 0 253.644 48">
  <g id="custom-3" transform="translate(-7.379 7.289)">
    <text id="Vendor_Portal" data-name="Vendor Portal" transform="translate(60.023 30.711)" fill="#fff" font-size="40" font-family="Roboto-BlackItalic, Roboto" font-weight="800" font-style="italic"><tspan x="0" y="0">Viju Edtech</tspan></text>
    <g id="custom-2" transform="translate(0.38 -5.938)">
      <g id="Group_4136" data-name="Group 4136" transform="translate(6.999 1.65)">
        <rect id="Rectangle_1491" data-name="Rectangle 1491" width="41.998" height="41.998" rx="20.999" transform="translate(0 0)" fill="#007bff"/>
        <g id="Group_41" data-name="Group 41" transform="translate(7.658 7.658)">
          <path id="Path_3" data-name="Path 3" d="M0,0H26.681V26.681H0Z" fill="none"/>
          <path id="Path_4" data-name="Path 4" d="M20.176,9.894a6.226,6.226,0,0,1,1.668,4.447c0,3.853-4.113,4.754-6.114,10.006a3.468,3.468,0,0,1-1.112-2.779C14.617,17.7,20.176,15.686,20.176,9.894ZM15.729,5.447a6.31,6.31,0,0,1,2,4.447c0,5.5-6.72,6.328-5.336,14.452a6.36,6.36,0,0,1-2.779-5.559C9.614,15.091,15.729,12.117,15.729,5.447ZM10.726,1A8.4,8.4,0,0,1,12.95,6c0,6.948-9.45,9.141-4.447,18.343a6.613,6.613,0,0,1-5-6.67C3.5,10.45,10.726,9.338,10.726,1Z" transform="translate(0.391 0.112)" fill="#fff"/>
        </g>
      </g>
    </g>
  </g>
</svg>
