<svg xmlns="http://www.w3.org/2000/svg" width="252.646" height="48" viewBox="0 0 252.646 48">
  <g id="custom-3-dark" transform="translate(-8.377 7.289)">
    <text id="Vendor_Portal" data-name="Vendor Portal" transform="translate(60.023 30.711)" fill="#0d2451" font-size="40" font-family="Roboto-BlackItalic, Roboto" font-weight="800" font-style="italic"><tspan x="0" y="0">Viju Edtech</tspan></text>
    <g id="custom-2" transform="translate(1.378 -4.578)">
      <g id="Group_4136" data-name="Group 4136" transform="translate(6.09 0.289)">
        <rect id="Rectangle_1491" data-name="Rectangle 1491" width="39.548" height="39.548" rx="19.774" transform="translate(0.909 1.361)" fill="#007bff"/>
        <g id="Group_41" data-name="Group 41" transform="translate(8.12 8.572)">
          <path id="Path_3" data-name="Path 3" d="M0,0H25.125V25.125H0Z" fill="none"/>
          <path id="Path_4" data-name="Path 4" d="M19.2,9.375a5.863,5.863,0,0,1,1.57,4.187c0,3.628-3.873,4.476-5.758,9.422a3.266,3.266,0,0,1-1.047-2.617C13.969,16.722,19.2,14.829,19.2,9.375ZM15.016,5.188A5.942,5.942,0,0,1,16.9,9.375c0,5.183-6.328,5.959-5.025,13.609A5.989,5.989,0,0,1,9.258,17.75C9.258,14.269,15.016,11.469,15.016,5.188ZM10.3,1A7.907,7.907,0,0,1,12.4,5.711c0,6.543-8.9,8.607-4.188,17.273A6.227,6.227,0,0,1,3.5,16.7C3.5,9.9,10.3,8.852,10.3,1Z" transform="translate(0.164 0.047)" fill="#fff"/>
        </g>
      </g>
    </g>
  </g>
</svg>
