<svg xmlns="http://www.w3.org/2000/svg" width="273.701" height="51.122" viewBox="0 0 273.701 51.122">
  <g id="default-dark" transform="translate(-12.732 -1.879)">
    <text id="Vendor_Portal" data-name="Vendor Portal" transform="translate(85.433 40.681)" fill="#fff" font-size="40" font-family="Roboto-BlackItalic, Roboto" font-weight="800" font-style="italic"><tspan x="0" y="0">Viju Edtech</tspan></text>
    <g id="custom-2" transform="translate(4.861 -0.486)">
      <g id="Group_4136" data-name="Group 4136" transform="translate(6.09 0.289)">
        <g id="custom-2-2" data-name="custom-2" transform="translate(-5.218 0.426)">
          <g id="Group_4136-2" data-name="Group 4136" transform="translate(6.999 1.65)">
            <rect id="Rectangle_1491" data-name="Rectangle 1491" width="51.122" height="51.122" rx="25.561" transform="translate(0 0)" fill="#007bff"/>
            <g id="Group_41" data-name="Group 41" transform="translate(9.322 9.322)">
              <path id="Path_3" data-name="Path 3" d="M0,0H32.478V32.478H0Z" fill="none"/>
              <path id="Path_4" data-name="Path 4" d="M23.8,11.826a7.579,7.579,0,0,1,2.03,5.413c0,4.69-5.007,5.786-7.443,12.179a4.222,4.222,0,0,1-1.353-3.383C17.032,21.323,23.8,18.876,23.8,11.826ZM18.386,6.413a7.681,7.681,0,0,1,2.436,5.413c0,6.7-8.18,7.7-6.5,17.592a7.741,7.741,0,0,1-3.383-6.766C10.943,18.152,18.386,14.532,18.386,6.413ZM12.3,1Q15,4.384,15,7.09C15,15.547,3.5,18.216,9.59,29.418A8.05,8.05,0,0,1,3.5,21.3C3.5,12.5,12.3,11.149,12.3,1Z" transform="translate(1.236 0.353)" fill="#fff"/>
            </g>
          </g>
        </g>
      </g>
    </g>
  </g>
</svg>
