<svg xmlns="http://www.w3.org/2000/svg" width="55.354" height="55.354" viewBox="0 0 55.354 55.354">
  <g id="default-small" transform="translate(-7.657 0)">
    <g id="custom-2" transform="translate(1.567 -0.289)">
      <g id="Group_4136" data-name="Group 4136" transform="translate(4.309 -1.787)">
        <g id="custom-2-2" data-name="custom-2" transform="translate(1.781 2.076)">
          <g id="Group_4136-2" data-name="Group 4136" transform="translate(0 0)">
            <rect id="Rectangle_1491" data-name="Rectangle 1491" width="55.354" height="55.354" rx="27.677" transform="translate(0 0)" fill="#007bff"/>
            <g id="Group_41" data-name="Group 41" transform="translate(10.094 10.094)">
              <path id="Path_3" data-name="Path 3" d="M0,0H35.166V35.166H0Z" fill="none"/>
              <path id="Path_4" data-name="Path 4" d="M25.479,12.722a8.206,8.206,0,0,1,2.2,5.861c0,5.079-5.421,6.265-8.059,13.187a4.571,4.571,0,0,1-1.465-3.663C18.153,23.005,25.479,20.356,25.479,12.722ZM19.618,6.861a8.316,8.316,0,0,1,2.637,5.861c0,7.255-8.858,8.34-7.033,19.048a8.382,8.382,0,0,1-3.663-7.326C11.559,19.572,19.618,15.653,19.618,6.861ZM13.024,1q2.93,3.664,2.931,6.594c0,9.158-12.455,12.047-5.861,24.177A8.716,8.716,0,0,1,3.5,22.979C3.5,13.455,13.024,11.989,13.024,1Z" transform="translate(1.628 0.465)" fill="#fff"/>
            </g>
          </g>
        </g>
      </g>
    </g>
  </g>
</svg>
