<svg xmlns="http://www.w3.org/2000/svg" width="275.684" height="54.092" viewBox="0 0 275.684 54.092">
  <g id="default" transform="translate(-11.242 -1.369)">
    <text id="Vendor_Portal" data-name="Vendor Portal" transform="translate(85.926 42.416)" fill="#0d2451" font-size="40" font-family="Roboto-BlackItalic, Roboto" font-weight="800" font-style="italic"><tspan x="0" y="0">Viju Edtech</tspan></text>
    <g id="custom-2" transform="translate(5.152 0.785)">
      <g id="Group_4136" data-name="Group 4136" transform="translate(6.09 0.289)">
        <g id="Group_4136-2" data-name="Group 4136" transform="translate(-1.781 -1.781)">
          <g id="custom-2-2" data-name="custom-2" transform="translate(1.781 2.076)">
            <g id="Group_4136-3" data-name="Group 4136" transform="translate(0 0)">
              <rect id="Rectangle_1491" data-name="Rectangle 1491" width="54.092" height="54.092" rx="27.046" transform="translate(0 0)" fill="#007bff"/>
              <g id="Group_41" data-name="Group 41" transform="translate(9.864 9.864)">
                <path id="Path_3" data-name="Path 3" d="M0,0H34.365V34.365H0Z" fill="none"/>
                <path id="Path_4" data-name="Path 4" d="M24.978,12.455a8.019,8.019,0,0,1,2.148,5.727c0,4.963-5.3,6.123-7.875,12.887a4.467,4.467,0,0,1-1.432-3.58C17.819,22.5,24.978,19.915,24.978,12.455ZM19.251,6.727a8.127,8.127,0,0,1,2.577,5.727c0,7.089-8.656,8.15-6.873,18.614a8.191,8.191,0,0,1-3.58-7.159C11.375,19.149,19.251,15.319,19.251,6.727ZM12.807,1q2.863,3.58,2.864,6.443c0,8.949-12.171,11.773-5.727,23.626A8.518,8.518,0,0,1,3.5,22.478C3.5,13.171,12.807,11.739,12.807,1Z" transform="translate(1.512 0.432)" fill="#fff"/>
              </g>
            </g>
          </g>
        </g>
      </g>
    </g>
  </g>
</svg>
