<svg xmlns="http://www.w3.org/2000/svg" xmlns:xlink="http://www.w3.org/1999/xlink" width="171.022" height="166.046" viewBox="0 0 171.022 166.046">
  <defs>
    <clipPath id="clip-path">
      <rect id="Rectangle_1576" data-name="Rectangle 1576" width="32" height="32" transform="translate(69 69)" fill="#fff"/>
    </clipPath>
  </defs>
  <g id="invite-image" transform="translate(-1.977 -1.977)">
    <path id="Path_4514" data-name="Path 4514" d="M75.816,3.8a24,24,0,0,1,18.369,0L135.92,21.092A24,24,0,0,1,148.908,34.08L166.2,75.816a24,24,0,0,1,0,18.369L148.908,135.92a24,24,0,0,1-12.988,12.988L94.184,166.2a24,24,0,0,1-18.369,0L34.08,148.908A24,24,0,0,1,21.092,135.92L3.8,94.184a24,24,0,0,1,0-18.369L21.092,34.08A24,24,0,0,1,34.08,21.092Z" fill="#fcfaff"/>
    <path id="Path_4515" data-name="Path 4515" d="M78.877,22.536a16,16,0,0,1,12.246,0L124.839,36.5a16,16,0,0,1,8.659,8.659l13.966,33.716a16,16,0,0,1,0,12.246L133.5,124.839a16,16,0,0,1-8.659,8.659L91.123,147.464a16,16,0,0,1-12.246,0L45.161,133.5a16,16,0,0,1-8.659-8.659L22.536,91.123a16,16,0,0,1,0-12.246L36.5,45.161A16,16,0,0,1,45.161,36.5Z" fill="#f8f6ff"/>
    <path id="Path_4516" data-name="Path 4516" d="M79.642,52.219a14,14,0,0,1,10.715,0l14.033,5.813a14,14,0,0,1,7.577,7.577l5.813,14.034a14,14,0,0,1,0,10.715l-5.813,14.033a14,14,0,0,1-7.577,7.577l-14.033,5.813a14,14,0,0,1-10.715,0l-14.034-5.813a14,14,0,0,1-7.577-7.577L52.219,90.358a14,14,0,0,1,0-10.715l5.813-14.034a14,14,0,0,1,7.577-7.577Z" fill="#ece7ff"/>
    <g id="Group_4139" data-name="Group 4139" clip-path="url(#clip-path)">
      <path id="Path_4517" data-name="Path 4517" d="M97.764,86.526A13.977,13.977,0,1,1,83.787,72.549,13.977,13.977,0,0,1,97.764,86.526Z" fill="#937de2"/>
      <path id="Path_4518" data-name="Path 4518" d="M83.787,72.549a14.091,14.091,0,0,0-2.172.168,13.979,13.979,0,0,1,0,27.617,14.123,14.123,0,0,0,2.171.168,13.977,13.977,0,1,0,0-27.953Z" fill="#7570d6"/>
      <path id="Path_4519" data-name="Path 4519" d="M99.509,85.492l-7.981,5.285A2.718,2.718,0,0,1,89.6,91.2a2.727,2.727,0,0,0-1.935.417l-1.068.708L80.611,83.5l1.468-6.34a6.616,6.616,0,0,0-.93-5.146,1.582,1.582,0,0,1,2.42-2.01l.951.921a10.162,10.162,0,0,1,2.453,3.76l.516,1.388L92.8,72.57a1.81,1.81,0,0,1,2.536.552,1.834,1.834,0,0,1-.569,2.487.02.02,0,0,0-.007.025.02.02,0,0,0,.026.01,1.793,1.793,0,0,1,.647-.12,1.809,1.809,0,0,1,1.777,2.161,1.85,1.85,0,0,1-.759,1.146.039.039,0,0,0-.01.054h0a.038.038,0,0,0,.051.01,1.853,1.853,0,0,1,.439-.052,1.908,1.908,0,0,1,1.021.3,1.779,1.779,0,0,1,.528.518,1.81,1.81,0,0,1-.51,2.508l-.062.041a.028.028,0,0,0-.009.035.017.017,0,0,0,.007.007.029.029,0,0,0,.036,0,1.773,1.773,0,0,1,1.536.2,1.84,1.84,0,0,1,.541.536,1.811,1.811,0,0,1-.509,2.509Z" fill="#fdd7bd"/>
      <path id="Path_4520" data-name="Path 4520" d="M86.67,93.995,83.3,96.224l-4.861,3.219a13.992,13.992,0,0,1-8.5-11l5.641-3.736,3.434-2.274a.859.859,0,0,1,1.191.243l6.7,10.124a.86.86,0,0,1-.243,1.192Z" fill="#87dbff"/>
      <path id="Path_4521" data-name="Path 4521" d="M86.669,93.995,83.3,96.224l-7.72-11.513,3.434-2.274a.859.859,0,0,1,1.191.243l6.7,10.124a.86.86,0,0,1-.243,1.192Z" fill="#6fc7ff"/>
      <path id="Path_4522" data-name="Path 4522" d="M96.418,75.815l-2.656,1.421a.86.86,0,0,1-1.1-.247l2.094-1.355a.02.02,0,0,0,.026.01,1.792,1.792,0,0,1,.647-.12,1.823,1.823,0,0,1,.987.29Z" fill="#fac5aa"/>
      <path id="Path_4523" data-name="Path 4523" d="M97.952,79.141l-2.6,1.389a.86.86,0,0,1-1.1-.246l2.094-1.355.09-.043a.038.038,0,0,0,.051.01,1.862,1.862,0,0,1,.439-.052A1.9,1.9,0,0,1,97.952,79.141Z" fill="#fac5aa"/>
      <path id="Path_4524" data-name="Path 4524" d="M99.478,82.447l-2.288,1.224a.861.861,0,0,1-1.1-.247l1.814-1.174a.029.029,0,0,0,.036,0A1.772,1.772,0,0,1,99.478,82.447Z" fill="#fac5aa"/>
      <path id="Path_4525" data-name="Path 4525" d="M100.433,82.709a2.293,2.293,0,0,0-1.419-.977,2.305,2.305,0,0,0-1.537-3.323,2.311,2.311,0,0,0-.119-2.348,2.29,2.29,0,0,0-1.42-.977,2.308,2.308,0,0,0-3.317-3l-2.3,1.521A14.353,14.353,0,0,0,86.444,72.3a10.667,10.667,0,0,0-1.48-1.791l-.951-.921a2.08,2.08,0,0,0-3.181,2.641l.074.114a14.475,14.475,0,1,0,16.5,19.1.5.5,0,1,0-.936-.338,13.5,13.5,0,0,1-16.938,8.215l4.048-2.681h0l3.365-2.228h0a1.357,1.357,0,0,0,.382-1.881l-.045-.067.654-.433a2.217,2.217,0,0,1,1.579-.341,3.208,3.208,0,0,0,2.286-.494l5.421-3.59A13.51,13.51,0,0,1,97.04,89a.5.5,0,0,0,.4.58.482.482,0,0,0,.091.009.5.5,0,0,0,.489-.407,14.545,14.545,0,0,0,.238-2.263l1.528-1.012a2.307,2.307,0,0,0,.65-3.2ZM89.357,74.248l-1.52,1.007-.3-.806a10.643,10.643,0,0,0-.427-.989A13.345,13.345,0,0,1,89.357,74.248ZM73.6,77.7a13.481,13.481,0,0,1,7.781-4.436,6.148,6.148,0,0,1,.31,3.723l-1.213,5.241a1.354,1.354,0,0,0-1.737-.2L75.306,84.3h0L70.349,87.58c-.027-.35-.041-.7-.041-1.054A13.476,13.476,0,0,1,73.6,77.7ZM86.55,93.35a.361.361,0,0,1-.155.23h0L83.44,95.536l-5.485-8.179a.5.5,0,0,0-.826.554l5.481,8.175L78.392,98.88a13.521,13.521,0,0,1-7.913-10.211l4.962-3.275.571.852a.5.5,0,0,0,.827-.554l-.567-.846,3.02-1.993a.362.362,0,0,1,.5.1l6.7,10.124a.359.359,0,0,1,.053.271ZM99.8,84.244a1.3,1.3,0,0,1-.562.833l-1.746,1.157h0l-6.233,4.128a2.215,2.215,0,0,1-1.579.341,3.21,3.21,0,0,0-2.286.494l-.654.433L81.242,83.34l1.419-6.132a7.149,7.149,0,0,0-.523-4.693.469.469,0,0,0-.021-.044,7.044,7.044,0,0,0-.455-.8A1.085,1.085,0,0,1,83.321,70.3l.951.921A9.723,9.723,0,0,1,86.6,74.794l.518,1.394,0,.007,0,.01c0,.009.007.016.011.023a.489.489,0,0,0,.034.062.5.5,0,0,0,.689.14l5.307-3.514a1.313,1.313,0,1,1,1.45,2.189l-.461.305h0l-1.028.681,0,0-.016.012a.5.5,0,0,0,.569.815l1.028-.681a1.313,1.313,0,0,1,1.449,2.19l-1.489.986a.5.5,0,1,0,.549.83l.23-.153.8-.528a1.313,1.313,0,1,1,1.45,2.189l-.744.492-.012.008-.733.486a.5.5,0,1,0,.549.83l.23-.152h0l.8-.528A1.312,1.312,0,0,1,99.8,84.244Z"/>
    </g>
    <path id="Path_4526" data-name="Path 4526" d="M12.658,30.8c-.113,1.751-1.524,3.858.169,5.336,1.468,1.259,3.3.328,4.967.438,1.834.137,1.044,1.779.818,2.983a4.419,4.419,0,0,0,.169,2.764c.677,1.368,2.512,2.244,3.867,1.259.847-.629,0-2.052-.847-1.423-1.383,1.012-1.665-1.423-1.524-2.162a17.252,17.252,0,0,0,.452-2.408,2.4,2.4,0,0,0-1.693-2.435c-1.355-.465-2.568.055-3.923.027-2.455-.055-.818-2.955-.734-4.378.057-1.067-1.637-1.067-1.722,0Z" fill="#ff9c07"/>
    <path id="Path_4527" data-name="Path 4527" d="M22.829,32.419c-.683,1.473-1.339,3.218-.246,4.691a2.466,2.466,0,0,0,1.612.982c.437.055,1.011-.136,1.393.027a1.223,1.223,0,0,1,.683,1.636c-.465.955.956,1.773,1.421.818a2.893,2.893,0,0,0-.738-3.546,3.082,3.082,0,0,0-1.885-.573c-1.995-.191-1.448-1.855-.82-3.191.437-.955-.984-1.8-1.421-.846Z" fill="#ff9c07"/>
    <path id="Path_4528" data-name="Path 4528" d="M167.67,60.851c-.169-2,2.356-3.132,3.422-1.242.9,1.637-.87,3.076-2.412,2.54-1.01-.367-1.459,1.27-.449,1.637a3.511,3.511,0,1,0-2.216-2.935c.056,1.072,1.739,1.1,1.655,0Z" fill="#4ad7b5"/>
    <path id="Path_4529" data-name="Path 4529" d="M58.73,141.39l-3.27-1.161L52.571,142l.191-3.194L50,136.832l3.4-.813L54.6,133l1.9,2.729,3.492.116-2.222,2.468Z" fill="none" stroke="#6fc7ff" stroke-width="1.2" fill-rule="evenodd"/>
  </g>
</svg>
