<svg xmlns="http://www.w3.org/2000/svg" width="1392.707" height="577.414" viewBox="0 0 1392.707 577.414">
  <g id="background" transform="translate(-23.646 -23.646)">
    <g id="Group_3" data-name="Group 3">
      <path id="Path_1" data-name="Path 1" d="M6-6-6,6Z" transform="translate(30 30)" stroke="#274d89" stroke-width="1"/>
      <path id="Path_2" data-name="Path 2" d="M-5,0A5,5,0,0,0,0,5,5,5,0,0,0,5,0,5,5,0,0,0,0-5,5,5,0,0,0-5,0Z" transform="translate(30 90)" stroke="#274d89" stroke-width="1"/>
      <path id="Path_3" data-name="Path 3" d="M-5,0A5,5,0,0,0,0,5,5,5,0,0,0,5,0,5,5,0,0,0,0-5,5,5,0,0,0-5,0Z" transform="translate(30 150)" stroke="#274d89" stroke-width="1"/>
      <path id="Path_4" data-name="Path 4" d="M6-6-6,6Z" transform="translate(30 210)" stroke="#274d89" stroke-width="1"/>
      <path id="Path_5" data-name="Path 5" d="M2-2-2,2Z" transform="translate(30 270)" stroke="#274d89" stroke-width="1"/>
      <path id="Path_6" data-name="Path 6" d="M-3,0A3,3,0,0,0,0,3,3,3,0,0,0,3,0,3,3,0,0,0,0-3,3,3,0,0,0-3,0Z" transform="translate(30 330)" stroke="#274d89" stroke-width="1"/>
      <path id="Path_7" data-name="Path 7" d="M-5,0A5,5,0,0,0,0,5,5,5,0,0,0,5,0,5,5,0,0,0,0-5,5,5,0,0,0-5,0Z" transform="translate(30 390)" stroke="#274d89" stroke-width="1"/>
      <path id="Path_8" data-name="Path 8" d="M6-6-6,6Z" transform="translate(30 450)" stroke="#274d89" stroke-width="1"/>
      <path id="Path_9" data-name="Path 9" d="M2-2-2,2Z" transform="translate(30 510)" stroke="#274d89" stroke-width="1"/>
      <path id="Path_10" data-name="Path 10" d="M6-6-6,6Z" transform="translate(30 570)" stroke="#274d89" stroke-width="1"/>
      <path id="Path_11" data-name="Path 11" d="M6-6-6,6Z" transform="translate(90 30)" stroke="#274d89" stroke-width="1"/>
      <path id="Path_12" data-name="Path 12" d="M30-30-30,30Z" transform="translate(90 90)" stroke="#274d89" stroke-width="3"/>
      <path id="Path_13" data-name="Path 13" d="M-5,0A5,5,0,0,0,0,5,5,5,0,0,0,5,0,5,5,0,0,0,0-5,5,5,0,0,0-5,0Z" transform="translate(90 150)" stroke="#274d89" stroke-width="1"/>
      <path id="Path_14" data-name="Path 14" d="M-3,0A3,3,0,0,0,0,3,3,3,0,0,0,3,0,3,3,0,0,0,0-3,3,3,0,0,0-3,0Z" transform="translate(90 210)" stroke="#274d89" stroke-width="1"/>
      <path id="Path_15" data-name="Path 15" d="M-5,0A5,5,0,0,0,0,5,5,5,0,0,0,5,0,5,5,0,0,0,0-5,5,5,0,0,0-5,0Z" transform="translate(90 270)" stroke="#274d89" stroke-width="1"/>
      <path id="Path_16" data-name="Path 16" d="M-5,0A5,5,0,0,0,0,5,5,5,0,0,0,5,0,5,5,0,0,0,0-5,5,5,0,0,0-5,0Z" transform="translate(90 330)" stroke="#274d89" stroke-width="1"/>
      <path id="Path_17" data-name="Path 17" d="M-5,0A5,5,0,0,0,0,5,5,5,0,0,0,5,0,5,5,0,0,0,0-5,5,5,0,0,0-5,0Z" transform="translate(90 390)" stroke="#274d89" stroke-width="1"/>
      <path id="Path_18" data-name="Path 18" d="M-5,0A5,5,0,0,0,0,5,5,5,0,0,0,5,0,5,5,0,0,0,0-5,5,5,0,0,0-5,0Z" transform="translate(90 450)" stroke="#274d89" stroke-width="1"/>
      <path id="Path_19" data-name="Path 19" d="M6-6-6,6Z" transform="translate(90 510)" stroke="#274d89" stroke-width="1"/>
      <path id="Path_20" data-name="Path 20" d="M2-2-2,2Z" transform="translate(90 570)" stroke="#274d89" stroke-width="1"/>
      <path id="Path_21" data-name="Path 21" d="M-5,0A5,5,0,0,0,0,5,5,5,0,0,0,5,0,5,5,0,0,0,0-5,5,5,0,0,0-5,0Z" transform="translate(150 30)" stroke="#274d89" stroke-width="1"/>
      <path id="Path_22" data-name="Path 22" d="M-3,0A3,3,0,0,0,0,3,3,3,0,0,0,3,0,3,3,0,0,0,0-3,3,3,0,0,0-3,0Z" transform="translate(150 90)" stroke="#274d89" stroke-width="1"/>
      <path id="Path_23" data-name="Path 23" d="M-3,0A3,3,0,0,0,0,3,3,3,0,0,0,3,0,3,3,0,0,0,0-3,3,3,0,0,0-3,0Z" transform="translate(150 150)" stroke="#274d89" stroke-width="1"/>
      <path id="Path_24" data-name="Path 24" d="M2-2-2,2Z" transform="translate(150 210)" stroke="#274d89" stroke-width="1"/>
      <path id="Path_25" data-name="Path 25" d="M-3,0A3,3,0,0,0,0,3,3,3,0,0,0,3,0,3,3,0,0,0,0-3,3,3,0,0,0-3,0Z" transform="translate(150 270)" stroke="#274d89" stroke-width="1"/>
      <path id="Path_26" data-name="Path 26" d="M6-6-6,6Z" transform="translate(150 330)" stroke="#274d89" stroke-width="1"/>
      <path id="Path_27" data-name="Path 27" d="M-5,0A5,5,0,0,0,0,5,5,5,0,0,0,5,0,5,5,0,0,0,0-5,5,5,0,0,0-5,0Z" transform="translate(150 390)" stroke="#274d89" stroke-width="1"/>
      <path id="Path_28" data-name="Path 28" d="M6-6-6,6Z" transform="translate(150 450)" stroke="#274d89" stroke-width="1"/>
      <path id="Path_29" data-name="Path 29" d="M-3,0A3,3,0,0,0,0,3,3,3,0,0,0,3,0,3,3,0,0,0,0-3,3,3,0,0,0-3,0Z" transform="translate(150 510)" stroke="#274d89" stroke-width="1"/>
      <path id="Path_30" data-name="Path 30" d="M-5,0A5,5,0,0,0,0,5,5,5,0,0,0,5,0,5,5,0,0,0,0-5,5,5,0,0,0-5,0Z" transform="translate(150 570)" stroke="#274d89" stroke-width="1"/>
      <path id="Path_31" data-name="Path 31" d="M-3,0A3,3,0,0,0,0,3,3,3,0,0,0,3,0,3,3,0,0,0,0-3,3,3,0,0,0-3,0Z" transform="translate(210 30)" stroke="#274d89" stroke-width="1"/>
      <path id="Path_32" data-name="Path 32" d="M6-6-6,6Z" transform="translate(210 90)" stroke="#274d89" stroke-width="1"/>
      <path id="Path_33" data-name="Path 33" d="M-5,0A5,5,0,0,0,0,5,5,5,0,0,0,5,0,5,5,0,0,0,0-5,5,5,0,0,0-5,0Z" transform="translate(210 150)" stroke="#274d89" stroke-width="1"/>
      <path id="Path_34" data-name="Path 34" d="M-5,0A5,5,0,0,0,0,5,5,5,0,0,0,5,0,5,5,0,0,0,0-5,5,5,0,0,0-5,0Z" transform="translate(210 210)" stroke="#274d89" stroke-width="1"/>
      <path id="Path_35" data-name="Path 35" d="M30-30-30,30Z" transform="translate(210 270)" stroke="#274d89" stroke-width="3"/>
      <path id="Path_36" data-name="Path 36" d="M-3,0A3,3,0,0,0,0,3,3,3,0,0,0,3,0,3,3,0,0,0,0-3,3,3,0,0,0-3,0Z" transform="translate(210 330)" stroke="#274d89" stroke-width="1"/>
      <path id="Path_37" data-name="Path 37" d="M6-6-6,6Z" transform="translate(210 390)" stroke="#274d89" stroke-width="1"/>
      <path id="Path_38" data-name="Path 38" d="M-1,0A1,1,0,0,0,0,1,1,1,0,0,0,1,0,1,1,0,0,0,0-1,1,1,0,0,0-1,0Z" transform="translate(210 450)" stroke="#274d89" stroke-width="1"/>
      <path id="Path_39" data-name="Path 39" d="M-5,0A5,5,0,0,0,0,5,5,5,0,0,0,5,0,5,5,0,0,0,0-5,5,5,0,0,0-5,0Z" transform="translate(210 510)" stroke="#274d89" stroke-width="1"/>
      <path id="Path_40" data-name="Path 40" d="M-5,0A5,5,0,0,0,0,5,5,5,0,0,0,5,0,5,5,0,0,0,0-5,5,5,0,0,0-5,0Z" transform="translate(210 570)" stroke="#274d89" stroke-width="1"/>
      <path id="Path_41" data-name="Path 41" d="M6-6-6,6Z" transform="translate(270 30)" stroke="#274d89" stroke-width="1"/>
      <path id="Path_42" data-name="Path 42" d="M6-6-6,6Z" transform="translate(270 90)" stroke="#274d89" stroke-width="1"/>
      <path id="Path_43" data-name="Path 43" d="M6-6-6,6Z" transform="translate(270 150)" stroke="#274d89" stroke-width="1"/>
      <path id="Path_44" data-name="Path 44" d="M-5,0A5,5,0,0,0,0,5,5,5,0,0,0,5,0,5,5,0,0,0,0-5,5,5,0,0,0-5,0Z" transform="translate(270 210)" stroke="#274d89" stroke-width="1"/>
      <path id="Path_45" data-name="Path 45" d="M-1,0A1,1,0,0,0,0,1,1,1,0,0,0,1,0,1,1,0,0,0,0-1,1,1,0,0,0-1,0Z" transform="translate(270 270)" stroke="#274d89" stroke-width="1"/>
      <path id="Path_46" data-name="Path 46" d="M-3,0A3,3,0,0,0,0,3,3,3,0,0,0,3,0,3,3,0,0,0,0-3,3,3,0,0,0-3,0Z" transform="translate(270 330)" stroke="#274d89" stroke-width="1"/>
      <path id="Path_47" data-name="Path 47" d="M-1,0A1,1,0,0,0,0,1,1,1,0,0,0,1,0,1,1,0,0,0,0-1,1,1,0,0,0-1,0Z" transform="translate(270 390)" stroke="#274d89" stroke-width="1"/>
      <path id="Path_48" data-name="Path 48" d="M-5,0A5,5,0,0,0,0,5,5,5,0,0,0,5,0,5,5,0,0,0,0-5,5,5,0,0,0-5,0Z" transform="translate(270 450)" stroke="#274d89" stroke-width="1"/>
      <path id="Path_49" data-name="Path 49" d="M2-2-2,2Z" transform="translate(270 510)" stroke="#274d89" stroke-width="1"/>
      <path id="Path_50" data-name="Path 50" d="M-1,0A1,1,0,0,0,0,1,1,1,0,0,0,1,0,1,1,0,0,0,0-1,1,1,0,0,0-1,0Z" transform="translate(270 570)" stroke="#274d89" stroke-width="1"/>
      <path id="Path_51" data-name="Path 51" d="M-5,0A5,5,0,0,0,0,5,5,5,0,0,0,5,0,5,5,0,0,0,0-5,5,5,0,0,0-5,0Z" transform="translate(330 30)" stroke="#274d89" stroke-width="1"/>
      <path id="Path_52" data-name="Path 52" d="M2-2-2,2Z" transform="translate(330 90)" stroke="#274d89" stroke-width="1"/>
      <path id="Path_53" data-name="Path 53" d="M6-6-6,6Z" transform="translate(330 150)" stroke="#274d89" stroke-width="1"/>
      <path id="Path_54" data-name="Path 54" d="M-3,0A3,3,0,0,0,0,3,3,3,0,0,0,3,0,3,3,0,0,0,0-3,3,3,0,0,0-3,0Z" transform="translate(330 210)" stroke="#274d89" stroke-width="1"/>
      <path id="Path_55" data-name="Path 55" d="M-1,0A1,1,0,0,0,0,1,1,1,0,0,0,1,0,1,1,0,0,0,0-1,1,1,0,0,0-1,0Z" transform="translate(330 270)" stroke="#274d89" stroke-width="1"/>
      <path id="Path_56" data-name="Path 56" d="M-5,0A5,5,0,0,0,0,5,5,5,0,0,0,5,0,5,5,0,0,0,0-5,5,5,0,0,0-5,0Z" transform="translate(330 330)" stroke="#274d89" stroke-width="1"/>
      <path id="Path_57" data-name="Path 57" d="M-3,0A3,3,0,0,0,0,3,3,3,0,0,0,3,0,3,3,0,0,0,0-3,3,3,0,0,0-3,0Z" transform="translate(330 390)" stroke="#274d89" stroke-width="1"/>
      <path id="Path_58" data-name="Path 58" d="M6-6-6,6Z" transform="translate(330 450)" stroke="#274d89" stroke-width="1"/>
      <path id="Path_59" data-name="Path 59" d="M-5,0A5,5,0,0,0,0,5,5,5,0,0,0,5,0,5,5,0,0,0,0-5,5,5,0,0,0-5,0Z" transform="translate(330 510)" stroke="#274d89" stroke-width="1"/>
      <path id="Path_60" data-name="Path 60" d="M6-6-6,6Z" transform="translate(330 570)" stroke="#274d89" stroke-width="1"/>
      <path id="Path_61" data-name="Path 61" d="M6-6-6,6Z" transform="translate(390 30)" stroke="#274d89" stroke-width="1"/>
      <path id="Path_62" data-name="Path 62" d="M6-6-6,6Z" transform="translate(390 90)" stroke="#274d89" stroke-width="1"/>
      <path id="Path_63" data-name="Path 63" d="M6-6-6,6Z" transform="translate(390 150)" stroke="#274d89" stroke-width="1"/>
      <path id="Path_64" data-name="Path 64" d="M-3,0A3,3,0,0,0,0,3,3,3,0,0,0,3,0,3,3,0,0,0,0-3,3,3,0,0,0-3,0Z" transform="translate(390 210)" stroke="#274d89" stroke-width="1"/>
      <path id="Path_65" data-name="Path 65" d="M6-6-6,6Z" transform="translate(390 270)" stroke="#274d89" stroke-width="1"/>
      <path id="Path_66" data-name="Path 66" d="M-3,0A3,3,0,0,0,0,3,3,3,0,0,0,3,0,3,3,0,0,0,0-3,3,3,0,0,0-3,0Z" transform="translate(390 330)" stroke="#274d89" stroke-width="1"/>
      <path id="Path_67" data-name="Path 67" d="M-1,0A1,1,0,0,0,0,1,1,1,0,0,0,1,0,1,1,0,0,0,0-1,1,1,0,0,0-1,0Z" transform="translate(390 390)" stroke="#274d89" stroke-width="1"/>
      <path id="Path_68" data-name="Path 68" d="M-1,0A1,1,0,0,0,0,1,1,1,0,0,0,1,0,1,1,0,0,0,0-1,1,1,0,0,0-1,0Z" transform="translate(390 450)" stroke="#274d89" stroke-width="1"/>
      <path id="Path_69" data-name="Path 69" d="M30-30-30,30Z" transform="translate(390 510)" stroke="#274d89" stroke-width="3"/>
      <path id="Path_70" data-name="Path 70" d="M6-6-6,6Z" transform="translate(390 570)" stroke="#274d89" stroke-width="1"/>
      <path id="Path_71" data-name="Path 71" d="M6-6-6,6Z" transform="translate(450 30)" stroke="#274d89" stroke-width="1"/>
      <path id="Path_72" data-name="Path 72" d="M-3,0A3,3,0,0,0,0,3,3,3,0,0,0,3,0,3,3,0,0,0,0-3,3,3,0,0,0-3,0Z" transform="translate(450 90)" stroke="#274d89" stroke-width="1"/>
      <path id="Path_73" data-name="Path 73" d="M6-6-6,6Z" transform="translate(450 150)" stroke="#274d89" stroke-width="1"/>
      <path id="Path_74" data-name="Path 74" d="M6-6-6,6Z" transform="translate(450 210)" stroke="#274d89" stroke-width="1"/>
      <path id="Path_75" data-name="Path 75" d="M-5,0A5,5,0,0,0,0,5,5,5,0,0,0,5,0,5,5,0,0,0,0-5,5,5,0,0,0-5,0Z" transform="translate(450 270)" stroke="#274d89" stroke-width="1"/>
      <path id="Path_76" data-name="Path 76" d="M-3,0A3,3,0,0,0,0,3,3,3,0,0,0,3,0,3,3,0,0,0,0-3,3,3,0,0,0-3,0Z" transform="translate(450 330)" stroke="#274d89" stroke-width="1"/>
      <path id="Path_77" data-name="Path 77" d="M-5,0A5,5,0,0,0,0,5,5,5,0,0,0,5,0,5,5,0,0,0,0-5,5,5,0,0,0-5,0Z" transform="translate(450 390)" stroke="#274d89" stroke-width="1"/>
      <path id="Path_78" data-name="Path 78" d="M-1,0A1,1,0,0,0,0,1,1,1,0,0,0,1,0,1,1,0,0,0,0-1,1,1,0,0,0-1,0Z" transform="translate(450 450)" stroke="#274d89" stroke-width="1"/>
      <path id="Path_79" data-name="Path 79" d="M6-6-6,6Z" transform="translate(450 510)" stroke="#274d89" stroke-width="1"/>
      <path id="Path_80" data-name="Path 80" d="M-3,0A3,3,0,0,0,0,3,3,3,0,0,0,3,0,3,3,0,0,0,0-3,3,3,0,0,0-3,0Z" transform="translate(450 570)" stroke="#274d89" stroke-width="1"/>
      <path id="Path_81" data-name="Path 81" d="M-1,0A1,1,0,0,0,0,1,1,1,0,0,0,1,0,1,1,0,0,0,0-1,1,1,0,0,0-1,0Z" transform="translate(510 30)" stroke="#274d89" stroke-width="1"/>
      <path id="Path_82" data-name="Path 82" d="M-5,0A5,5,0,0,0,0,5,5,5,0,0,0,5,0,5,5,0,0,0,0-5,5,5,0,0,0-5,0Z" transform="translate(510 90)" stroke="#274d89" stroke-width="1"/>
      <path id="Path_83" data-name="Path 83" d="M-3,0A3,3,0,0,0,0,3,3,3,0,0,0,3,0,3,3,0,0,0,0-3,3,3,0,0,0-3,0Z" transform="translate(510 150)" stroke="#274d89" stroke-width="1"/>
      <path id="Path_84" data-name="Path 84" d="M2-2-2,2Z" transform="translate(510 210)" stroke="#274d89" stroke-width="1"/>
      <path id="Path_85" data-name="Path 85" d="M-5,0A5,5,0,0,0,0,5,5,5,0,0,0,5,0,5,5,0,0,0,0-5,5,5,0,0,0-5,0Z" transform="translate(510 270)" stroke="#274d89" stroke-width="1"/>
      <path id="Path_86" data-name="Path 86" d="M-5,0A5,5,0,0,0,0,5,5,5,0,0,0,5,0,5,5,0,0,0,0-5,5,5,0,0,0-5,0Z" transform="translate(510 330)" stroke="#274d89" stroke-width="1"/>
      <path id="Path_87" data-name="Path 87" d="M-1,0A1,1,0,0,0,0,1,1,1,0,0,0,1,0,1,1,0,0,0,0-1,1,1,0,0,0-1,0Z" transform="translate(510 390)" stroke="#274d89" stroke-width="1"/>
      <path id="Path_88" data-name="Path 88" d="M-5,0A5,5,0,0,0,0,5,5,5,0,0,0,5,0,5,5,0,0,0,0-5,5,5,0,0,0-5,0Z" transform="translate(510 450)" stroke="#274d89" stroke-width="1"/>
      <path id="Path_89" data-name="Path 89" d="M-3,0A3,3,0,0,0,0,3,3,3,0,0,0,3,0,3,3,0,0,0,0-3,3,3,0,0,0-3,0Z" transform="translate(510 510)" stroke="#274d89" stroke-width="1"/>
      <path id="Path_90" data-name="Path 90" d="M-3,0A3,3,0,0,0,0,3,3,3,0,0,0,3,0,3,3,0,0,0,0-3,3,3,0,0,0-3,0Z" transform="translate(510 570)" stroke="#274d89" stroke-width="1"/>
      <path id="Path_91" data-name="Path 91" d="M-5,0A5,5,0,0,0,0,5,5,5,0,0,0,5,0,5,5,0,0,0,0-5,5,5,0,0,0-5,0Z" transform="translate(570 30)" stroke="#274d89" stroke-width="1"/>
      <path id="Path_92" data-name="Path 92" d="M6-6-6,6Z" transform="translate(570 90)" stroke="#274d89" stroke-width="1"/>
      <path id="Path_93" data-name="Path 93" d="M-5,0A5,5,0,0,0,0,5,5,5,0,0,0,5,0,5,5,0,0,0,0-5,5,5,0,0,0-5,0Z" transform="translate(570 150)" stroke="#274d89" stroke-width="1"/>
      <path id="Path_94" data-name="Path 94" d="M6-6-6,6Z" transform="translate(570 210)" stroke="#274d89" stroke-width="1"/>
      <path id="Path_95" data-name="Path 95" d="M-1,0A1,1,0,0,0,0,1,1,1,0,0,0,1,0,1,1,0,0,0,0-1,1,1,0,0,0-1,0Z" transform="translate(570 270)" stroke="#274d89" stroke-width="1"/>
      <path id="Path_96" data-name="Path 96" d="M2-2-2,2Z" transform="translate(570 330)" stroke="#274d89" stroke-width="1"/>
      <path id="Path_97" data-name="Path 97" d="M6-6-6,6Z" transform="translate(570 390)" stroke="#274d89" stroke-width="1"/>
      <path id="Path_98" data-name="Path 98" d="M6-6-6,6Z" transform="translate(570 450)" stroke="#274d89" stroke-width="1"/>
      <path id="Path_99" data-name="Path 99" d="M-5,0A5,5,0,0,0,0,5,5,5,0,0,0,5,0,5,5,0,0,0,0-5,5,5,0,0,0-5,0Z" transform="translate(570 510)" stroke="#274d89" stroke-width="1"/>
      <path id="Path_100" data-name="Path 100" d="M6-6-6,6Z" transform="translate(570 570)" stroke="#274d89" stroke-width="1"/>
      <path id="Path_101" data-name="Path 101" d="M-3,0A3,3,0,0,0,0,3,3,3,0,0,0,3,0,3,3,0,0,0,0-3,3,3,0,0,0-3,0Z" transform="translate(630 30)" stroke="#274d89" stroke-width="1"/>
      <path id="Path_102" data-name="Path 102" d="M-5,0A5,5,0,0,0,0,5,5,5,0,0,0,5,0,5,5,0,0,0,0-5,5,5,0,0,0-5,0Z" transform="translate(630 90)" stroke="#274d89" stroke-width="1"/>
      <path id="Path_103" data-name="Path 103" d="M30-30-30,30Z" transform="translate(630 150)" stroke="#274d89" stroke-width="3"/>
      <path id="Path_104" data-name="Path 104" d="M6-6-6,6Z" transform="translate(630 210)" stroke="#274d89" stroke-width="1"/>
      <path id="Path_105" data-name="Path 105" d="M2-2-2,2Z" transform="translate(630 270)" stroke="#274d89" stroke-width="1"/>
      <path id="Path_106" data-name="Path 106" d="M2-2-2,2Z" transform="translate(630 330)" stroke="#274d89" stroke-width="1"/>
      <path id="Path_107" data-name="Path 107" d="M6-6-6,6Z" transform="translate(630 390)" stroke="#274d89" stroke-width="1"/>
      <path id="Path_108" data-name="Path 108" d="M2-2-2,2Z" transform="translate(630 450)" stroke="#274d89" stroke-width="1"/>
      <path id="Path_109" data-name="Path 109" d="M-5,0A5,5,0,0,0,0,5,5,5,0,0,0,5,0,5,5,0,0,0,0-5,5,5,0,0,0-5,0Z" transform="translate(630 510)" stroke="#274d89" stroke-width="1"/>
      <path id="Path_110" data-name="Path 110" d="M30-30-30,30Z" transform="translate(630 570)" stroke="#274d89" stroke-width="3"/>
      <path id="Path_111" data-name="Path 111" d="M-5,0A5,5,0,0,0,0,5,5,5,0,0,0,5,0,5,5,0,0,0,0-5,5,5,0,0,0-5,0Z" transform="translate(690 30)" stroke="#274d89" stroke-width="1"/>
      <path id="Path_112" data-name="Path 112" d="M-3,0A3,3,0,0,0,0,3,3,3,0,0,0,3,0,3,3,0,0,0,0-3,3,3,0,0,0-3,0Z" transform="translate(690 90)" stroke="#274d89" stroke-width="1"/>
      <path id="Path_113" data-name="Path 113" d="M2-2-2,2Z" transform="translate(690 150)" stroke="#274d89" stroke-width="1"/>
      <path id="Path_114" data-name="Path 114" d="M6-6-6,6Z" transform="translate(690 210)" stroke="#274d89" stroke-width="1"/>
      <path id="Path_115" data-name="Path 115" d="M-5,0A5,5,0,0,0,0,5,5,5,0,0,0,5,0,5,5,0,0,0,0-5,5,5,0,0,0-5,0Z" transform="translate(690 270)" stroke="#274d89" stroke-width="1"/>
      <path id="Path_116" data-name="Path 116" d="M6-6-6,6Z" transform="translate(690 330)" stroke="#274d89" stroke-width="1"/>
      <path id="Path_117" data-name="Path 117" d="M-1,0A1,1,0,0,0,0,1,1,1,0,0,0,1,0,1,1,0,0,0,0-1,1,1,0,0,0-1,0Z" transform="translate(690 390)" stroke="#274d89" stroke-width="1"/>
      <path id="Path_118" data-name="Path 118" d="M6-6-6,6Z" transform="translate(690 450)" stroke="#274d89" stroke-width="1"/>
      <path id="Path_119" data-name="Path 119" d="M6-6-6,6Z" transform="translate(690 510)" stroke="#274d89" stroke-width="1"/>
      <path id="Path_120" data-name="Path 120" d="M6-6-6,6Z" transform="translate(690 570)" stroke="#274d89" stroke-width="1"/>
    </g>
    <g id="Group_2" data-name="Group 2" transform="translate(720)">
      <path id="Path_121" data-name="Path 121" d="M6-6-6,6Z" transform="translate(30 30)" stroke="#274d89" stroke-width="1"/>
      <path id="Path_122" data-name="Path 122" d="M-5,0A5,5,0,0,0,0,5,5,5,0,0,0,5,0,5,5,0,0,0,0-5,5,5,0,0,0-5,0Z" transform="translate(30 90)" stroke="#274d89" stroke-width="1"/>
      <path id="Path_123" data-name="Path 123" d="M-5,0A5,5,0,0,0,0,5,5,5,0,0,0,5,0,5,5,0,0,0,0-5,5,5,0,0,0-5,0Z" transform="translate(30 150)" stroke="#274d89" stroke-width="1"/>
      <path id="Path_124" data-name="Path 124" d="M6-6-6,6Z" transform="translate(30 210)" stroke="#274d89" stroke-width="1"/>
      <path id="Path_125" data-name="Path 125" d="M2-2-2,2Z" transform="translate(30 270)" stroke="#274d89" stroke-width="1"/>
      <path id="Path_126" data-name="Path 126" d="M-3,0A3,3,0,0,0,0,3,3,3,0,0,0,3,0,3,3,0,0,0,0-3,3,3,0,0,0-3,0Z" transform="translate(30 330)" stroke="#274d89" stroke-width="1"/>
      <path id="Path_127" data-name="Path 127" d="M-5,0A5,5,0,0,0,0,5,5,5,0,0,0,5,0,5,5,0,0,0,0-5,5,5,0,0,0-5,0Z" transform="translate(30 390)" stroke="#274d89" stroke-width="1"/>
      <path id="Path_128" data-name="Path 128" d="M6-6-6,6Z" transform="translate(30 450)" stroke="#274d89" stroke-width="1"/>
      <path id="Path_129" data-name="Path 129" d="M2-2-2,2Z" transform="translate(30 510)" stroke="#274d89" stroke-width="1"/>
      <path id="Path_130" data-name="Path 130" d="M6-6-6,6Z" transform="translate(30 570)" stroke="#274d89" stroke-width="1"/>
      <path id="Path_131" data-name="Path 131" d="M6-6-6,6Z" transform="translate(90 30)" stroke="#274d89" stroke-width="1"/>
      <path id="Path_132" data-name="Path 132" d="M30-30-30,30Z" transform="translate(90 90)" stroke="#274d89" stroke-width="3"/>
      <path id="Path_133" data-name="Path 133" d="M-5,0A5,5,0,0,0,0,5,5,5,0,0,0,5,0,5,5,0,0,0,0-5,5,5,0,0,0-5,0Z" transform="translate(90 150)" stroke="#274d89" stroke-width="1"/>
      <path id="Path_134" data-name="Path 134" d="M-3,0A3,3,0,0,0,0,3,3,3,0,0,0,3,0,3,3,0,0,0,0-3,3,3,0,0,0-3,0Z" transform="translate(90 210)" stroke="#274d89" stroke-width="1"/>
      <path id="Path_135" data-name="Path 135" d="M-5,0A5,5,0,0,0,0,5,5,5,0,0,0,5,0,5,5,0,0,0,0-5,5,5,0,0,0-5,0Z" transform="translate(90 270)" stroke="#274d89" stroke-width="1"/>
      <path id="Path_136" data-name="Path 136" d="M-5,0A5,5,0,0,0,0,5,5,5,0,0,0,5,0,5,5,0,0,0,0-5,5,5,0,0,0-5,0Z" transform="translate(90 330)" stroke="#274d89" stroke-width="1"/>
      <path id="Path_137" data-name="Path 137" d="M-5,0A5,5,0,0,0,0,5,5,5,0,0,0,5,0,5,5,0,0,0,0-5,5,5,0,0,0-5,0Z" transform="translate(90 390)" stroke="#274d89" stroke-width="1"/>
      <path id="Path_138" data-name="Path 138" d="M-5,0A5,5,0,0,0,0,5,5,5,0,0,0,5,0,5,5,0,0,0,0-5,5,5,0,0,0-5,0Z" transform="translate(90 450)" stroke="#274d89" stroke-width="1"/>
      <path id="Path_139" data-name="Path 139" d="M6-6-6,6Z" transform="translate(90 510)" stroke="#274d89" stroke-width="1"/>
      <path id="Path_140" data-name="Path 140" d="M2-2-2,2Z" transform="translate(90 570)" stroke="#274d89" stroke-width="1"/>
      <path id="Path_141" data-name="Path 141" d="M-5,0A5,5,0,0,0,0,5,5,5,0,0,0,5,0,5,5,0,0,0,0-5,5,5,0,0,0-5,0Z" transform="translate(150 30)" stroke="#274d89" stroke-width="1"/>
      <path id="Path_142" data-name="Path 142" d="M-3,0A3,3,0,0,0,0,3,3,3,0,0,0,3,0,3,3,0,0,0,0-3,3,3,0,0,0-3,0Z" transform="translate(150 90)" stroke="#274d89" stroke-width="1"/>
      <path id="Path_143" data-name="Path 143" d="M-3,0A3,3,0,0,0,0,3,3,3,0,0,0,3,0,3,3,0,0,0,0-3,3,3,0,0,0-3,0Z" transform="translate(150 150)" stroke="#274d89" stroke-width="1"/>
      <path id="Path_144" data-name="Path 144" d="M2-2-2,2Z" transform="translate(150 210)" stroke="#274d89" stroke-width="1"/>
      <path id="Path_145" data-name="Path 145" d="M-3,0A3,3,0,0,0,0,3,3,3,0,0,0,3,0,3,3,0,0,0,0-3,3,3,0,0,0-3,0Z" transform="translate(150 270)" stroke="#274d89" stroke-width="1"/>
      <path id="Path_146" data-name="Path 146" d="M6-6-6,6Z" transform="translate(150 330)" stroke="#274d89" stroke-width="1"/>
      <path id="Path_147" data-name="Path 147" d="M-5,0A5,5,0,0,0,0,5,5,5,0,0,0,5,0,5,5,0,0,0,0-5,5,5,0,0,0-5,0Z" transform="translate(150 390)" stroke="#274d89" stroke-width="1"/>
      <path id="Path_148" data-name="Path 148" d="M6-6-6,6Z" transform="translate(150 450)" stroke="#274d89" stroke-width="1"/>
      <path id="Path_149" data-name="Path 149" d="M-3,0A3,3,0,0,0,0,3,3,3,0,0,0,3,0,3,3,0,0,0,0-3,3,3,0,0,0-3,0Z" transform="translate(150 510)" stroke="#274d89" stroke-width="1"/>
      <path id="Path_150" data-name="Path 150" d="M-5,0A5,5,0,0,0,0,5,5,5,0,0,0,5,0,5,5,0,0,0,0-5,5,5,0,0,0-5,0Z" transform="translate(150 570)" stroke="#274d89" stroke-width="1"/>
      <path id="Path_151" data-name="Path 151" d="M-3,0A3,3,0,0,0,0,3,3,3,0,0,0,3,0,3,3,0,0,0,0-3,3,3,0,0,0-3,0Z" transform="translate(210 30)" stroke="#274d89" stroke-width="1"/>
      <path id="Path_152" data-name="Path 152" d="M6-6-6,6Z" transform="translate(210 90)" stroke="#274d89" stroke-width="1"/>
      <path id="Path_153" data-name="Path 153" d="M-5,0A5,5,0,0,0,0,5,5,5,0,0,0,5,0,5,5,0,0,0,0-5,5,5,0,0,0-5,0Z" transform="translate(210 150)" stroke="#274d89" stroke-width="1"/>
      <path id="Path_154" data-name="Path 154" d="M-5,0A5,5,0,0,0,0,5,5,5,0,0,0,5,0,5,5,0,0,0,0-5,5,5,0,0,0-5,0Z" transform="translate(210 210)" stroke="#274d89" stroke-width="1"/>
      <path id="Path_155" data-name="Path 155" d="M30-30-30,30Z" transform="translate(210 270)" stroke="#274d89" stroke-width="3"/>
      <path id="Path_156" data-name="Path 156" d="M-3,0A3,3,0,0,0,0,3,3,3,0,0,0,3,0,3,3,0,0,0,0-3,3,3,0,0,0-3,0Z" transform="translate(210 330)" stroke="#274d89" stroke-width="1"/>
      <path id="Path_157" data-name="Path 157" d="M6-6-6,6Z" transform="translate(210 390)" stroke="#274d89" stroke-width="1"/>
      <path id="Path_158" data-name="Path 158" d="M-1,0A1,1,0,0,0,0,1,1,1,0,0,0,1,0,1,1,0,0,0,0-1,1,1,0,0,0-1,0Z" transform="translate(210 450)" stroke="#274d89" stroke-width="1"/>
      <path id="Path_159" data-name="Path 159" d="M-5,0A5,5,0,0,0,0,5,5,5,0,0,0,5,0,5,5,0,0,0,0-5,5,5,0,0,0-5,0Z" transform="translate(210 510)" stroke="#274d89" stroke-width="1"/>
      <path id="Path_160" data-name="Path 160" d="M-5,0A5,5,0,0,0,0,5,5,5,0,0,0,5,0,5,5,0,0,0,0-5,5,5,0,0,0-5,0Z" transform="translate(210 570)" stroke="#274d89" stroke-width="1"/>
      <path id="Path_161" data-name="Path 161" d="M6-6-6,6Z" transform="translate(270 30)" stroke="#274d89" stroke-width="1"/>
      <path id="Path_162" data-name="Path 162" d="M6-6-6,6Z" transform="translate(270 90)" stroke="#274d89" stroke-width="1"/>
      <path id="Path_163" data-name="Path 163" d="M6-6-6,6Z" transform="translate(270 150)" stroke="#274d89" stroke-width="1"/>
      <path id="Path_164" data-name="Path 164" d="M-5,0A5,5,0,0,0,0,5,5,5,0,0,0,5,0,5,5,0,0,0,0-5,5,5,0,0,0-5,0Z" transform="translate(270 210)" stroke="#274d89" stroke-width="1"/>
      <path id="Path_165" data-name="Path 165" d="M-1,0A1,1,0,0,0,0,1,1,1,0,0,0,1,0,1,1,0,0,0,0-1,1,1,0,0,0-1,0Z" transform="translate(270 270)" stroke="#274d89" stroke-width="1"/>
      <path id="Path_166" data-name="Path 166" d="M-3,0A3,3,0,0,0,0,3,3,3,0,0,0,3,0,3,3,0,0,0,0-3,3,3,0,0,0-3,0Z" transform="translate(270 330)" stroke="#274d89" stroke-width="1"/>
      <path id="Path_167" data-name="Path 167" d="M-1,0A1,1,0,0,0,0,1,1,1,0,0,0,1,0,1,1,0,0,0,0-1,1,1,0,0,0-1,0Z" transform="translate(270 390)" stroke="#274d89" stroke-width="1"/>
      <path id="Path_168" data-name="Path 168" d="M-5,0A5,5,0,0,0,0,5,5,5,0,0,0,5,0,5,5,0,0,0,0-5,5,5,0,0,0-5,0Z" transform="translate(270 450)" stroke="#274d89" stroke-width="1"/>
      <path id="Path_169" data-name="Path 169" d="M2-2-2,2Z" transform="translate(270 510)" stroke="#274d89" stroke-width="1"/>
      <path id="Path_170" data-name="Path 170" d="M-1,0A1,1,0,0,0,0,1,1,1,0,0,0,1,0,1,1,0,0,0,0-1,1,1,0,0,0-1,0Z" transform="translate(270 570)" stroke="#274d89" stroke-width="1"/>
      <path id="Path_171" data-name="Path 171" d="M-5,0A5,5,0,0,0,0,5,5,5,0,0,0,5,0,5,5,0,0,0,0-5,5,5,0,0,0-5,0Z" transform="translate(330 30)" stroke="#274d89" stroke-width="1"/>
      <path id="Path_172" data-name="Path 172" d="M2-2-2,2Z" transform="translate(330 90)" stroke="#274d89" stroke-width="1"/>
      <path id="Path_173" data-name="Path 173" d="M6-6-6,6Z" transform="translate(330 150)" stroke="#274d89" stroke-width="1"/>
      <path id="Path_174" data-name="Path 174" d="M-3,0A3,3,0,0,0,0,3,3,3,0,0,0,3,0,3,3,0,0,0,0-3,3,3,0,0,0-3,0Z" transform="translate(330 210)" stroke="#274d89" stroke-width="1"/>
      <path id="Path_175" data-name="Path 175" d="M-1,0A1,1,0,0,0,0,1,1,1,0,0,0,1,0,1,1,0,0,0,0-1,1,1,0,0,0-1,0Z" transform="translate(330 270)" stroke="#274d89" stroke-width="1"/>
      <path id="Path_176" data-name="Path 176" d="M-5,0A5,5,0,0,0,0,5,5,5,0,0,0,5,0,5,5,0,0,0,0-5,5,5,0,0,0-5,0Z" transform="translate(330 330)" stroke="#274d89" stroke-width="1"/>
      <path id="Path_177" data-name="Path 177" d="M-3,0A3,3,0,0,0,0,3,3,3,0,0,0,3,0,3,3,0,0,0,0-3,3,3,0,0,0-3,0Z" transform="translate(330 390)" stroke="#274d89" stroke-width="1"/>
      <path id="Path_178" data-name="Path 178" d="M6-6-6,6Z" transform="translate(330 450)" stroke="#274d89" stroke-width="1"/>
      <path id="Path_179" data-name="Path 179" d="M-5,0A5,5,0,0,0,0,5,5,5,0,0,0,5,0,5,5,0,0,0,0-5,5,5,0,0,0-5,0Z" transform="translate(330 510)" stroke="#274d89" stroke-width="1"/>
      <path id="Path_180" data-name="Path 180" d="M6-6-6,6Z" transform="translate(330 570)" stroke="#274d89" stroke-width="1"/>
      <path id="Path_181" data-name="Path 181" d="M6-6-6,6Z" transform="translate(390 30)" stroke="#274d89" stroke-width="1"/>
      <path id="Path_182" data-name="Path 182" d="M6-6-6,6Z" transform="translate(390 90)" stroke="#274d89" stroke-width="1"/>
      <path id="Path_183" data-name="Path 183" d="M6-6-6,6Z" transform="translate(390 150)" stroke="#274d89" stroke-width="1"/>
      <path id="Path_184" data-name="Path 184" d="M-3,0A3,3,0,0,0,0,3,3,3,0,0,0,3,0,3,3,0,0,0,0-3,3,3,0,0,0-3,0Z" transform="translate(390 210)" stroke="#274d89" stroke-width="1"/>
      <path id="Path_185" data-name="Path 185" d="M6-6-6,6Z" transform="translate(390 270)" stroke="#274d89" stroke-width="1"/>
      <path id="Path_186" data-name="Path 186" d="M-3,0A3,3,0,0,0,0,3,3,3,0,0,0,3,0,3,3,0,0,0,0-3,3,3,0,0,0-3,0Z" transform="translate(390 330)" stroke="#274d89" stroke-width="1"/>
      <path id="Path_187" data-name="Path 187" d="M-1,0A1,1,0,0,0,0,1,1,1,0,0,0,1,0,1,1,0,0,0,0-1,1,1,0,0,0-1,0Z" transform="translate(390 390)" stroke="#274d89" stroke-width="1"/>
      <path id="Path_188" data-name="Path 188" d="M-1,0A1,1,0,0,0,0,1,1,1,0,0,0,1,0,1,1,0,0,0,0-1,1,1,0,0,0-1,0Z" transform="translate(390 450)" stroke="#274d89" stroke-width="1"/>
      <path id="Path_189" data-name="Path 189" d="M30-30-30,30Z" transform="translate(390 510)" stroke="#274d89" stroke-width="3"/>
      <path id="Path_190" data-name="Path 190" d="M6-6-6,6Z" transform="translate(390 570)" stroke="#274d89" stroke-width="1"/>
      <path id="Path_191" data-name="Path 191" d="M6-6-6,6Z" transform="translate(450 30)" stroke="#274d89" stroke-width="1"/>
      <path id="Path_192" data-name="Path 192" d="M-3,0A3,3,0,0,0,0,3,3,3,0,0,0,3,0,3,3,0,0,0,0-3,3,3,0,0,0-3,0Z" transform="translate(450 90)" stroke="#274d89" stroke-width="1"/>
      <path id="Path_193" data-name="Path 193" d="M6-6-6,6Z" transform="translate(450 150)" stroke="#274d89" stroke-width="1"/>
      <path id="Path_194" data-name="Path 194" d="M6-6-6,6Z" transform="translate(450 210)" stroke="#274d89" stroke-width="1"/>
      <path id="Path_195" data-name="Path 195" d="M-5,0A5,5,0,0,0,0,5,5,5,0,0,0,5,0,5,5,0,0,0,0-5,5,5,0,0,0-5,0Z" transform="translate(450 270)" stroke="#274d89" stroke-width="1"/>
      <path id="Path_196" data-name="Path 196" d="M-3,0A3,3,0,0,0,0,3,3,3,0,0,0,3,0,3,3,0,0,0,0-3,3,3,0,0,0-3,0Z" transform="translate(450 330)" stroke="#274d89" stroke-width="1"/>
      <path id="Path_197" data-name="Path 197" d="M-5,0A5,5,0,0,0,0,5,5,5,0,0,0,5,0,5,5,0,0,0,0-5,5,5,0,0,0-5,0Z" transform="translate(450 390)" stroke="#274d89" stroke-width="1"/>
      <path id="Path_198" data-name="Path 198" d="M-1,0A1,1,0,0,0,0,1,1,1,0,0,0,1,0,1,1,0,0,0,0-1,1,1,0,0,0-1,0Z" transform="translate(450 450)" stroke="#274d89" stroke-width="1"/>
      <path id="Path_199" data-name="Path 199" d="M6-6-6,6Z" transform="translate(450 510)" stroke="#274d89" stroke-width="1"/>
      <path id="Path_200" data-name="Path 200" d="M-3,0A3,3,0,0,0,0,3,3,3,0,0,0,3,0,3,3,0,0,0,0-3,3,3,0,0,0-3,0Z" transform="translate(450 570)" stroke="#274d89" stroke-width="1"/>
      <path id="Path_201" data-name="Path 201" d="M-1,0A1,1,0,0,0,0,1,1,1,0,0,0,1,0,1,1,0,0,0,0-1,1,1,0,0,0-1,0Z" transform="translate(510 30)" stroke="#274d89" stroke-width="1"/>
      <path id="Path_202" data-name="Path 202" d="M-5,0A5,5,0,0,0,0,5,5,5,0,0,0,5,0,5,5,0,0,0,0-5,5,5,0,0,0-5,0Z" transform="translate(510 90)" stroke="#274d89" stroke-width="1"/>
      <path id="Path_203" data-name="Path 203" d="M-3,0A3,3,0,0,0,0,3,3,3,0,0,0,3,0,3,3,0,0,0,0-3,3,3,0,0,0-3,0Z" transform="translate(510 150)" stroke="#274d89" stroke-width="1"/>
      <path id="Path_204" data-name="Path 204" d="M2-2-2,2Z" transform="translate(510 210)" stroke="#274d89" stroke-width="1"/>
      <path id="Path_205" data-name="Path 205" d="M-5,0A5,5,0,0,0,0,5,5,5,0,0,0,5,0,5,5,0,0,0,0-5,5,5,0,0,0-5,0Z" transform="translate(510 270)" stroke="#274d89" stroke-width="1"/>
      <path id="Path_206" data-name="Path 206" d="M-5,0A5,5,0,0,0,0,5,5,5,0,0,0,5,0,5,5,0,0,0,0-5,5,5,0,0,0-5,0Z" transform="translate(510 330)" stroke="#274d89" stroke-width="1"/>
      <path id="Path_207" data-name="Path 207" d="M-1,0A1,1,0,0,0,0,1,1,1,0,0,0,1,0,1,1,0,0,0,0-1,1,1,0,0,0-1,0Z" transform="translate(510 390)" stroke="#274d89" stroke-width="1"/>
      <path id="Path_208" data-name="Path 208" d="M-5,0A5,5,0,0,0,0,5,5,5,0,0,0,5,0,5,5,0,0,0,0-5,5,5,0,0,0-5,0Z" transform="translate(510 450)" stroke="#274d89" stroke-width="1"/>
      <path id="Path_209" data-name="Path 209" d="M-3,0A3,3,0,0,0,0,3,3,3,0,0,0,3,0,3,3,0,0,0,0-3,3,3,0,0,0-3,0Z" transform="translate(510 510)" stroke="#274d89" stroke-width="1"/>
      <path id="Path_210" data-name="Path 210" d="M-3,0A3,3,0,0,0,0,3,3,3,0,0,0,3,0,3,3,0,0,0,0-3,3,3,0,0,0-3,0Z" transform="translate(510 570)" stroke="#274d89" stroke-width="1"/>
      <path id="Path_211" data-name="Path 211" d="M-5,0A5,5,0,0,0,0,5,5,5,0,0,0,5,0,5,5,0,0,0,0-5,5,5,0,0,0-5,0Z" transform="translate(570 30)" stroke="#274d89" stroke-width="1"/>
      <path id="Path_212" data-name="Path 212" d="M6-6-6,6Z" transform="translate(570 90)" stroke="#274d89" stroke-width="1"/>
      <path id="Path_213" data-name="Path 213" d="M-5,0A5,5,0,0,0,0,5,5,5,0,0,0,5,0,5,5,0,0,0,0-5,5,5,0,0,0-5,0Z" transform="translate(570 150)" stroke="#274d89" stroke-width="1"/>
      <path id="Path_214" data-name="Path 214" d="M6-6-6,6Z" transform="translate(570 210)" stroke="#274d89" stroke-width="1"/>
      <path id="Path_215" data-name="Path 215" d="M-1,0A1,1,0,0,0,0,1,1,1,0,0,0,1,0,1,1,0,0,0,0-1,1,1,0,0,0-1,0Z" transform="translate(570 270)" stroke="#274d89" stroke-width="1"/>
      <path id="Path_216" data-name="Path 216" d="M2-2-2,2Z" transform="translate(570 330)" stroke="#274d89" stroke-width="1"/>
      <path id="Path_217" data-name="Path 217" d="M6-6-6,6Z" transform="translate(570 390)" stroke="#274d89" stroke-width="1"/>
      <path id="Path_218" data-name="Path 218" d="M6-6-6,6Z" transform="translate(570 450)" stroke="#274d89" stroke-width="1"/>
      <path id="Path_219" data-name="Path 219" d="M-5,0A5,5,0,0,0,0,5,5,5,0,0,0,5,0,5,5,0,0,0,0-5,5,5,0,0,0-5,0Z" transform="translate(570 510)" stroke="#274d89" stroke-width="1"/>
      <path id="Path_220" data-name="Path 220" d="M6-6-6,6Z" transform="translate(570 570)" stroke="#274d89" stroke-width="1"/>
      <path id="Path_221" data-name="Path 221" d="M-3,0A3,3,0,0,0,0,3,3,3,0,0,0,3,0,3,3,0,0,0,0-3,3,3,0,0,0-3,0Z" transform="translate(630 30)" stroke="#274d89" stroke-width="1"/>
      <path id="Path_222" data-name="Path 222" d="M-5,0A5,5,0,0,0,0,5,5,5,0,0,0,5,0,5,5,0,0,0,0-5,5,5,0,0,0-5,0Z" transform="translate(630 90)" stroke="#274d89" stroke-width="1"/>
      <path id="Path_223" data-name="Path 223" d="M30-30-30,30Z" transform="translate(630 150)" stroke="#274d89" stroke-width="3"/>
      <path id="Path_224" data-name="Path 224" d="M6-6-6,6Z" transform="translate(630 210)" stroke="#274d89" stroke-width="1"/>
      <path id="Path_225" data-name="Path 225" d="M2-2-2,2Z" transform="translate(630 270)" stroke="#274d89" stroke-width="1"/>
      <path id="Path_226" data-name="Path 226" d="M2-2-2,2Z" transform="translate(630 330)" stroke="#274d89" stroke-width="1"/>
      <path id="Path_227" data-name="Path 227" d="M6-6-6,6Z" transform="translate(630 390)" stroke="#274d89" stroke-width="1"/>
      <path id="Path_228" data-name="Path 228" d="M2-2-2,2Z" transform="translate(630 450)" stroke="#274d89" stroke-width="1"/>
      <path id="Path_229" data-name="Path 229" d="M-5,0A5,5,0,0,0,0,5,5,5,0,0,0,5,0,5,5,0,0,0,0-5,5,5,0,0,0-5,0Z" transform="translate(630 510)" stroke="#274d89" stroke-width="1"/>
      <path id="Path_230" data-name="Path 230" d="M30-30-30,30Z" transform="translate(630 570)" stroke="#274d89" stroke-width="3"/>
      <path id="Path_231" data-name="Path 231" d="M-5,0A5,5,0,0,0,0,5,5,5,0,0,0,5,0,5,5,0,0,0,0-5,5,5,0,0,0-5,0Z" transform="translate(690 30)" stroke="#274d89" stroke-width="1"/>
      <path id="Path_232" data-name="Path 232" d="M-3,0A3,3,0,0,0,0,3,3,3,0,0,0,3,0,3,3,0,0,0,0-3,3,3,0,0,0-3,0Z" transform="translate(690 90)" stroke="#274d89" stroke-width="1"/>
      <path id="Path_233" data-name="Path 233" d="M2-2-2,2Z" transform="translate(690 150)" stroke="#274d89" stroke-width="1"/>
      <path id="Path_234" data-name="Path 234" d="M6-6-6,6Z" transform="translate(690 210)" stroke="#274d89" stroke-width="1"/>
      <path id="Path_235" data-name="Path 235" d="M-5,0A5,5,0,0,0,0,5,5,5,0,0,0,5,0,5,5,0,0,0,0-5,5,5,0,0,0-5,0Z" transform="translate(690 270)" stroke="#274d89" stroke-width="1"/>
      <path id="Path_236" data-name="Path 236" d="M6-6-6,6Z" transform="translate(690 330)" stroke="#274d89" stroke-width="1"/>
      <path id="Path_237" data-name="Path 237" d="M-1,0A1,1,0,0,0,0,1,1,1,0,0,0,1,0,1,1,0,0,0,0-1,1,1,0,0,0-1,0Z" transform="translate(690 390)" stroke="#274d89" stroke-width="1"/>
      <path id="Path_238" data-name="Path 238" d="M6-6-6,6Z" transform="translate(690 450)" stroke="#274d89" stroke-width="1"/>
      <path id="Path_239" data-name="Path 239" d="M6-6-6,6Z" transform="translate(690 510)" stroke="#274d89" stroke-width="1"/>
      <path id="Path_240" data-name="Path 240" d="M6-6-6,6Z" transform="translate(690 570)" stroke="#274d89" stroke-width="1"/>
    </g>
  </g>
</svg>
