<svg xmlns="http://www.w3.org/2000/svg" width="86.001" height="86.001" viewBox="0 0 86.001 86.001">
  <g id="zflogo" transform="translate(-9.737 -9.273)">
    <path id="Exclusion_2" data-name="Exclusion 2" d="M43,86a43.307,43.307,0,0,1-8.666-.874,42.76,42.76,0,0,1-15.376-6.47A43.126,43.126,0,0,1,3.379,59.738,42.8,42.8,0,0,1,.874,51.667a43.416,43.416,0,0,1,0-17.332,42.766,42.766,0,0,1,6.47-15.376A43.122,43.122,0,0,1,26.263,3.379,42.789,42.789,0,0,1,34.335.874a43.417,43.417,0,0,1,17.332,0,42.771,42.771,0,0,1,15.376,6.47A43.123,43.123,0,0,1,82.622,26.263a42.791,42.791,0,0,1,2.506,8.072,43.416,43.416,0,0,1,0,17.332,42.771,42.771,0,0,1-6.47,15.376A43.128,43.128,0,0,1,59.738,82.622a42.782,42.782,0,0,1-8.072,2.505A43.3,43.3,0,0,1,43,86ZM9.093,24.359a39.794,39.794,0,0,0-3.516,8.907,38.83,38.83,0,0,0,68.113,33.75H12.648l17.23-42.657H9.093ZM28.58,19.1H44.489l-17.22,42.67H76.949a7.036,7.036,0,0,1,.459-.692l.006-.009a6.084,6.084,0,0,0,.443-.694,38.717,38.717,0,0,0-.752-36.02H57.318V37.65H67.823V42.9H57.318V57.9H45.725V19.1H73.55l-.019-.022c-.062-.075-.25-.3-.451-.557-.238-.307-.509-.647-.6-.759A39.282,39.282,0,0,0,59.513,7.924a38.386,38.386,0,0,0-16.42-3.647,38.99,38.99,0,0,0-17.235,4.07A39.836,39.836,0,0,0,12.5,19.1Z" transform="translate(9.737 9.273)" fill="#036eb8"/>
  </g>
</svg>
