<svg xmlns="http://www.w3.org/2000/svg" width="30" height="30" viewBox="0 0 30 30">
  <g id="logo" transform="translate(-1909.022 757.978)">
    <g id="Group_4068" data-name="Group 4068" transform="translate(1376.044 -1140.956)">
      <rect id="Rectangle_1491" data-name="Rectangle 1491" width="30" height="30" transform="translate(532.978 382.978)" fill="none"/>
    </g>
    <g id="zflogo" transform="translate(1901.581 -764.955)">
      <path id="Exclusion_2" data-name="Exclusion 2" d="M12.7,25.407a12.794,12.794,0,0,1-2.56-.258A12.633,12.633,0,0,1,5.6,23.238,12.741,12.741,0,0,1,1,17.648a12.645,12.645,0,0,1-.74-2.385,12.826,12.826,0,0,1,0-5.12A12.634,12.634,0,0,1,2.17,5.6,12.739,12.739,0,0,1,7.759,1a12.641,12.641,0,0,1,2.385-.74,12.827,12.827,0,0,1,5.12,0A12.636,12.636,0,0,1,19.806,2.17a12.74,12.74,0,0,1,4.6,5.589,12.642,12.642,0,0,1,.74,2.385,12.826,12.826,0,0,1,0,5.12,12.636,12.636,0,0,1-1.911,4.542,12.741,12.741,0,0,1-5.589,4.6,12.639,12.639,0,0,1-2.385.74A12.793,12.793,0,0,1,12.7,25.407ZM2.686,7.2A11.756,11.756,0,0,0,1.647,9.828,11.472,11.472,0,0,0,21.77,19.8H3.737L8.827,7.2H2.686ZM8.443,5.644h4.7L8.056,18.25H22.733a2.078,2.078,0,0,1,.136-.2l0,0a1.8,1.8,0,0,0,.131-.2A11.438,11.438,0,0,0,22.779,7.2H16.933v3.926h3.1v1.553h-3.1V17.1H13.509V5.644h8.22l-.006-.007c-.018-.022-.074-.089-.133-.165s-.15-.191-.178-.224a11.605,11.605,0,0,0-3.83-2.907,11.34,11.34,0,0,0-4.851-1.077,11.519,11.519,0,0,0-5.092,1.2A11.769,11.769,0,0,0,3.694,5.644Z" transform="translate(9.737 9.273)" fill="#036eb8"/>
    </g>
  </g>
</svg>
