<svg xmlns="http://www.w3.org/2000/svg" width="86" height="86" viewBox="0 0 86 86">
  <g id="xllogo" transform="translate(-10.095 -9.546)">
    <g id="Group_36" data-name="Group 36" transform="translate(-385.141 107.394)">
      <path id="Background_icon" data-name="Background icon" d="M30.129,0h8.436A30.129,30.129,0,0,1,68.7,30.129v8.436A30.129,30.129,0,0,1,38.566,68.7H30.129A30.129,30.129,0,0,1,0,38.566V30.129A30.129,30.129,0,0,1,30.129,0Z" transform="translate(403.531 -89.469)" fill="#265ae8"/>
      <g id="Background_icon-2" data-name="Background icon" transform="translate(397.905 -95.095)" fill="none">
        <path d="M35.065,0h9.818A35.065,35.065,0,0,1,79.949,35.065v9.818A35.065,35.065,0,0,1,44.883,79.949H35.065A35.065,35.065,0,0,1,0,44.883V35.065A35.065,35.065,0,0,1,35.065,0Z" stroke="none"/>
        <path d="M 35.06514739990234 1 C 30.46593475341797 1 26.00483703613281 1.900535583496094 21.80575942993164 3.676605224609375 C 17.74942398071289 5.392280578613281 14.10626220703125 7.848648071289062 10.97744750976562 10.97744750976562 C 7.848648071289062 14.10626220703125 5.392280578613281 17.74942398071289 3.676605224609375 21.80575942993164 C 1.900535583496094 26.00483703613281 1 30.46593475341797 1 35.06514739990234 L 1 44.88338088989258 C 1 49.48258972167969 1.900535583496094 53.94369125366211 3.676605224609375 58.14276885986328 C 5.392280578613281 62.19910430908203 7.848648071289062 65.84228515625 10.97744750976562 68.97108459472656 C 14.10626220703125 72.09989166259766 17.74942398071289 74.55625915527344 21.80575942993164 76.27193450927734 C 26.00483703613281 78.04800415039062 30.46593475341797 78.94853973388672 35.06514739990234 78.94853973388672 L 44.88338088989258 78.94853973388672 C 49.48258972167969 78.94853973388672 53.94369125366211 78.04800415039062 58.14276885986328 76.27193450927734 C 62.19910430908203 74.55625915527344 65.84228515625 72.09989166259766 68.97108459472656 68.97108459472656 C 72.09989166259766 65.84228515625 74.55625915527344 62.19910430908203 76.27193450927734 58.14276885986328 C 78.04800415039062 53.94369125366211 78.94853973388672 49.48258972167969 78.94853973388672 44.88338088989258 L 78.94853973388672 35.06514739990234 C 78.94853973388672 30.46593475341797 78.04800415039062 26.00483703613281 76.27193450927734 21.80575942993164 C 74.55625915527344 17.74942398071289 72.09989166259766 14.10626220703125 68.97108459472656 10.97744750976562 C 65.84228515625 7.848648071289062 62.19910430908203 5.392280578613281 58.14276885986328 3.676605224609375 C 53.94369125366211 1.900535583496094 49.48258972167969 1 44.88338088989258 1 L 35.06514739990234 1 M 35.06514739990234 0 L 44.88338088989258 0 C 64.24933624267578 0 79.94853973388672 15.69919586181641 79.94853973388672 35.06514739990234 L 79.94853973388672 44.88338088989258 C 79.94853973388672 64.24933624267578 64.24933624267578 79.94853973388672 44.88338088989258 79.94853973388672 L 35.06514739990234 79.94853973388672 C 15.69919586181641 79.94853973388672 0 64.24933624267578 0 44.88338088989258 L 0 35.06514739990234 C 0 15.69919586181641 15.69919586181641 0 35.06514739990234 0 Z" stroke="none" fill="#265ae8"/>
      </g>
      <g id="Group_2" data-name="Group 2" transform="translate(415.972 -76.757)">
        <path id="Path_3" data-name="Path 3" d="M0,0H43.649V43.649H0Z" fill="none"/>
        <path id="Path_4" data-name="Path 4" d="M30.781,15.55a10.186,10.186,0,0,1,2.728,7.275c0,6.3-6.729,7.777-10,16.369a5.674,5.674,0,0,1-1.819-4.547C21.687,28.314,30.781,25.025,30.781,15.55ZM23.506,8.275A10.322,10.322,0,0,1,26.78,15.55c0,9-10.994,10.352-8.73,23.643A10.4,10.4,0,0,1,13.5,30.1C13.5,24.052,23.506,19.187,23.506,8.275ZM15.322,1q3.637,4.548,3.637,8.184c0,11.367-15.459,14.954-7.275,30.009C6.926,38.138,3.5,33.737,3.5,28.281,3.5,16.459,15.322,14.64,15.322,1Z" transform="translate(2.866 0.819)" fill="#fff"/>
      </g>
    </g>
    <rect id="Rectangle_1701" data-name="Rectangle 1701" width="86" height="86" transform="translate(10.095 9.546)" fill="none"/>
  </g>
</svg>
