<svg xmlns="http://www.w3.org/2000/svg" width="30" height="30" viewBox="0 0 30 30">
  <g id="xmlogo" transform="translate(-1909.022 757.978)">
    <g id="Group_4068" data-name="Group 4068" transform="translate(1376.044 -1140.956)">
      <rect id="Rectangle_1491" data-name="Rectangle 1491" width="30" height="30" transform="translate(532.978 382.978)" fill="none"/>
    </g>
    <g id="Group_37" data-name="Group 37" transform="translate(1513.611 -660.389)">
      <path id="Background_icon" data-name="Background icon" d="M8.765,0h2.454a8.765,8.765,0,0,1,8.765,8.765v2.454a8.765,8.765,0,0,1-8.765,8.765H8.765A8.765,8.765,0,0,1,0,11.219V8.765A8.765,8.765,0,0,1,8.765,0Z" transform="translate(400.419 -92.581)" fill="#265ae8"/>
      <g id="Background_icon-2" data-name="Background icon" transform="translate(397.905 -95.095)" fill="none">
        <path d="M10.97,0h3.072a10.97,10.97,0,0,1,10.97,10.97v3.072a10.97,10.97,0,0,1-10.97,10.97H10.97A10.97,10.97,0,0,1,0,14.042V10.97A10.97,10.97,0,0,1,10.97,0Z" stroke="none"/>
        <path d="M 10.97018051147461 0.9999980926513672 C 5.472600936889648 0.9999980926513672 1 5.472599029541016 1 10.97017860412598 L 1 14.04182815551758 C 1 19.53940773010254 5.472600936889648 24.01201820373535 10.97018051147461 24.01201820373535 L 14.04183006286621 24.01201820373535 C 19.53940963745117 24.01201820373535 24.01202011108398 19.53940773010254 24.01202011108398 14.04182815551758 L 24.01202011108398 10.97017860412598 C 24.01202011108398 5.472599029541016 19.53940963745117 0.9999980926513672 14.04183006286621 0.9999980926513672 L 10.97018051147461 0.9999980926513672 M 10.97018051147461 -1.9073486328125e-06 L 14.04183006286621 -1.9073486328125e-06 C 20.10050010681152 -1.9073486328125e-06 25.01202011108398 4.911518096923828 25.01202011108398 10.97017860412598 L 25.01202011108398 14.04182815551758 C 25.01202011108398 20.10049819946289 20.10050010681152 25.01201820373535 14.04183006286621 25.01201820373535 L 10.97018051147461 25.01201820373535 C 4.911520004272461 25.01201820373535 0 20.10049819946289 0 14.04182815551758 L 0 10.97017860412598 C 0 4.911518096923828 4.911520004272461 -1.9073486328125e-06 10.97018051147461 -1.9073486328125e-06 Z" stroke="none" fill="#265ae8"/>
      </g>
      <g id="Group_2" data-name="Group 2" transform="translate(404.151 -88.756)">
        <path id="Path_3" data-name="Path 3" d="M0,0H12.463V12.463H0Z" fill="none"/>
        <path id="Path_4" data-name="Path 4" d="M11.289,5.154a2.908,2.908,0,0,1,.779,2.077c0,1.8-1.921,2.22-2.856,4.674a1.62,1.62,0,0,1-.519-1.3C8.693,8.8,11.289,7.86,11.289,5.154ZM9.212,3.077a2.947,2.947,0,0,1,.935,2.077c0,2.571-3.139,2.956-2.493,6.751a2.971,2.971,0,0,1-1.3-2.6C6.356,7.582,9.212,6.193,9.212,3.077ZM6.875,1A3.922,3.922,0,0,1,7.914,3.337c0,3.246-4.414,4.27-2.077,8.568A3.089,3.089,0,0,1,3.5,8.789C3.5,5.414,6.875,4.895,6.875,1Z" transform="translate(-1.682 -0.481)" fill="#fff"/>
      </g>
    </g>
  </g>
</svg>
